<?xml version="1.0" encoding="utf-8"?>
<svg xmlns="http://www.w3.org/2000/svg"
	xmlns:xlink="http://www.w3.org/1999/xlink"
	width="44px" height="45px" viewBox="0 0 44 45">
<path fillRule="evenodd" d="M 21.98 0.92C 9.82 0.92-0.03 10.78-0.03 22.93-0.03 35.08 9.82 44.93 21.98 44.93 34.13 44.93 43.98 35.08 43.98 22.93 43.98 10.78 34.13 0.92 21.98 0.92ZM 28.55 15.36C 28.55 15.36 24.91 15.36 24.91 15.36 24.44 15.36 23.57 15.56 23.57 16.41 23.57 16.41 23.57 19.34 23.57 19.34 23.57 19.34 28.55 19.34 28.55 19.34 28.55 19.34 28.55 24.32 28.55 24.32 28.55 24.32 23.57 24.32 23.57 24.32 23.57 24.32 23.57 36.27 23.57 36.27 23.57 36.27 18.59 36.27 18.59 36.27 18.59 36.27 18.59 24.32 18.59 24.32 18.59 24.32 14.61 24.32 14.61 24.32 14.61 24.32 14.61 19.34 14.61 19.34 14.61 19.34 18.59 19.34 18.59 19.34 18.59 19.34 18.59 16.46 18.59 16.46 18.59 12.89 21.62 10.39 24.91 10.39 24.91 10.39 28.55 10.39 28.55 10.39 28.55 10.39 28.55 15.36 28.55 15.36Z" fill="rgb(255,255,255)"/></svg>