<?xml version="1.0" encoding="utf-8"?>
<svg xmlns="http://www.w3.org/2000/svg"
	xmlns:xlink="http://www.w3.org/1999/xlink"
	width="44px" height="44px" viewBox="0 0 44 44">
<path fillRule="evenodd" d="M 22 0C 9.85 0-0 9.85-0 22-0 34.15 9.85 44 22 44 34.15 44 44 34.15 44 22 44 9.85 34.15 0 22 0ZM 23.78 27.2C 22.52 28.92 20.78 29.87 18.7 30.23 16.93 30.53 15.2 30.39 13.56 29.66 10.64 28.34 8.86 26.09 8.32 22.92 7.68 19.12 9.67 15.35 13.13 13.65 14.61 12.93 16.17 12.64 17.81 12.78 19.73 12.94 21.41 13.67 22.83 14.97 22.86 15 22.89 15.03 22.9 15.05 22.05 15.91 21.2 16.75 20.35 17.6 20.13 17.44 19.91 17.25 19.68 17.1 17.51 15.7 14.62 16.24 12.99 18.34 10.65 21.36 12.19 25.8 15.92 26.66 17.75 27.08 19.43 26.68 20.76 25.26 21.26 24.73 21.54 24.09 21.69 23.36 21.58 23.36 21.48 23.36 21.38 23.36 20.02 23.36 18.65 23.35 17.29 23.36 17.05 23.36 16.97 23.29 16.98 23.05 16.99 22.05 16.98 21.04 16.98 20.04 16.98 19.97 16.99 19.9 17 19.8 17.1 19.79 17.18 19.78 17.27 19.78 19.85 19.78 22.44 19.79 25.02 19.78 25.24 19.78 25.31 19.84 25.34 20.06 25.72 22.64 25.36 25.06 23.78 27.2ZM 35.93 20.29C 35.91 20.82 35.92 21.36 35.92 21.89 35.92 22 35.91 22.09 35.9 22.24 34.87 22.24 33.86 22.24 32.82 22.24 32.82 23.28 32.82 24.28 32.82 25.3 32.67 25.31 32.57 25.32 32.46 25.32 31.95 25.32 31.44 25.32 30.93 25.32 30.59 25.32 30.59 25.32 30.59 24.99 30.59 24.17 30.59 23.35 30.59 22.52 30.59 22.44 30.59 22.34 30.59 22.24 30.46 22.24 30.37 22.24 30.29 22.24 29.45 22.24 28.62 22.23 27.79 22.25 27.57 22.25 27.52 22.18 27.52 21.96 27.54 21.43 27.53 20.89 27.53 20.36 27.53 19.99 27.53 19.99 27.9 19.99 28.7 19.99 29.5 19.98 30.3 19.99 30.52 20 30.6 19.93 30.59 19.7 30.58 18.86 30.59 18.02 30.58 17.19 30.58 16.98 30.65 16.92 30.85 16.92 31.5 16.93 32.13 16.92 32.82 16.92 32.82 17.95 32.82 18.95 32.82 19.98 32.92 19.98 33.03 19.99 33.12 19.99 33.96 19.99 34.8 20 35.64 19.99 35.88 19.98 35.93 20.06 35.93 20.29Z" fill="rgb(255,255,255)"/></svg>