<?xml version="1.0" encoding="utf-8"?>
<svg xmlns="http://www.w3.org/2000/svg"
	xmlns:xlink="http://www.w3.org/1999/xlink"
	width="46px" height="46px" viewBox="0 0 46 46">
<path fillRule="evenodd" d="M 23-0C 10.3-0-0 10.3-0 23-0 35.7 10.3 46 23 46 35.7 46 46 35.7 46 23 46 10.3 35.7-0 23-0ZM 21.95 15.35C 22.55 15 23.22 14.68 23.89 14.53 28.68 13.43 33.48 13.41 38.27 14.52 39.08 14.71 39.84 15.16 40.62 15.48 40.58 15.55 40.53 15.63 40.48 15.7 35.21 14 29.87 13.99 24.5 15.15 23.59 15.34 22.76 15.88 21.7 16.35 21.33 16.13 21.4 15.67 21.95 15.35ZM 14.06 13.13C 13.38 13.33 12.77 13.75 11.95 14.15 11.52 13.92 11.48 13.46 12.11 13.09 12.71 12.74 13.38 12.44 14.06 12.3 18.51 11.35 22.98 11.32 27.43 12.28 28.16 12.44 28.84 12.8 29.55 13.06 29.52 13.13 29.49 13.2 29.46 13.28 27.74 12.99 26.04 12.58 24.31 12.44 20.87 12.14 17.42 12.17 14.06 13.13ZM 19.81 42.1C 13.52 41.57 4.98 35.83 3.59 25.92 2.15 15.65 8.42 6.4 18.35 4.04 28.4 1.66 37.25 7.52 40.31 14.56 40.26 14.6 40.19 14.68 40.16 14.67 37.36 13.6 34.44 13.45 31.48 13.4 30.94 13.39 30.4 13.05 29.87 12.85 29.05 12.55 28.25 12.11 27.41 11.95 22.84 11.09 18.27 11.09 13.7 12.04 12.09 12.37 10.94 13.24 10.12 14.61 5.72 21.93 9.72 31.85 18.73 33.37 19.58 33.51 19.86 33.77 19.83 34.63 19.77 37.09 19.81 39.56 19.81 42.1ZM 10.97 26.59C 8.68 22.64 8.76 17.15 11.12 14.14 13.8 16.23 17.09 15.89 20.18 16.3 20.14 16.47 20.11 16.63 20.08 16.8 17.16 16.89 14.31 16.57 11.4 14.94 10.98 16.22 10.35 17.44 10.23 18.72 9.95 21.59 11.04 24.2 12.17 26.77 10.76 23.24 10.59 19.72 12.12 16.07 12.65 16.21 13.12 16.34 13.62 16.48 13.35 17.76 13.1 18.96 12.82 20.34 14.79 20.16 16.54 20.01 18.35 19.84 18.35 22.2 18.16 24.45 18.4 26.66 18.64 28.95 19.94 30.86 21.47 32.64 17.97 33.16 13.13 30.33 10.97 26.59ZM 29.12 40.74C 29.1 41.05 28.77 41.55 28.52 41.59 26.5 41.93 24.47 42.21 22.43 42.44 22.22 42.46 21.76 42.06 21.76 41.84 21.71 39.21 21.73 36.57 21.74 33.94 21.74 33.72 21.87 33.51 21.99 33.15 23.99 34.98 26.16 36.08 28.63 36.62 28.84 36.66 29.12 37.05 29.13 37.3 29.18 38.44 29.19 39.6 29.12 40.74ZM 26.24 32.76C 24.71 32.22 23.29 31.71 22.5 30.12 20.76 26.66 20.39 23.13 21.63 19.45 21.71 19.22 21.79 19 21.88 18.79 21.92 18.7 21.99 18.62 22.11 18.45 22.55 18.58 23.01 18.73 23.57 18.9 22.01 23.99 22.86 28.6 26.24 32.76ZM 33.39 39.56C 33.27 39.49 33.16 39.42 33.05 39.35 33.05 38.62 33 37.89 33.08 37.18 33.1 36.95 33.43 36.67 33.68 36.57 35.13 36.04 36.6 35.55 38.05 35.05 38.12 35.1 38.19 35.14 38.26 35.19 36.63 36.64 35.01 38.1 33.39 39.56ZM 40.79 17.7C 39.49 18.14 38.18 18.64 36.82 18.85 32.79 19.47 28.73 19.45 24.72 18.57 23.59 18.33 22.53 17.8 21.21 17.32 18.75 22.5 19.48 27.42 23.19 32.17 19.39 29.5 17.32 21.69 21 16.36 22.45 17.79 24.36 18.04 26.22 18.28 30.1 18.79 33.99 18.8 37.82 17.94 38.95 17.68 40.01 17.16 41.27 16.69 41.63 17.1 41.32 17.52 40.79 17.7Z" fill="rgb(0,27,95)"/></svg>