<?xml version="1.0" encoding="utf-8"?>
<svg xmlns="http://www.w3.org/2000/svg"
	xmlns:xlink="http://www.w3.org/1999/xlink"
	width="76px" height="40px" viewBox="0 0 76 40">
<path fillRule="evenodd" d="M 73.71 29.75C 74.65 30.22 75.5 30.76 76 31.72 76 32.33 76 32.94 76 33.54 75.89 33.79 75.78 34.05 75.67 34.3 74.99 35.78 73.59 36.45 72.03 36.06 70.45 35.66 69.36 34.23 69.53 32.7 69.55 32.48 69.88 32.19 70.11 32.14 70.56 32.05 71.05 32.12 71.59 32.12 71.62 32.42 71.57 32.7 71.68 32.89 71.94 33.3 72.2 33.8 72.6 33.99 72.83 34.1 73.57 33.75 73.64 33.49 73.77 33.02 73.71 32.38 73.45 31.99 73.19 31.59 72.6 31.4 72.14 31.14 71.83 30.96 71.49 30.83 71.17 30.65 69.73 29.83 69.24 28.88 69.52 27.46 69.82 25.97 70.9 24.91 72.3 24.76 73.84 24.59 75.08 25.24 75.74 26.58 75.82 26.75 75.91 26.92 76 27.09 76 27.59 76 28.08 76 28.58 75.31 28.54 74.62 28.5 73.91 28.46 73.88 28.24 73.83 28.08 73.83 27.92 73.85 27.35 73.59 26.86 73.02 26.86 72.6 26.87 71.96 27.15 71.83 27.47 71.69 27.84 71.84 28.52 72.13 28.83 72.53 29.26 73.16 29.47 73.71 29.75ZM 66.96 23.48C 66.28 23.46 65.73 22.9 65.76 22.24 65.79 21.59 66.36 21.06 67.03 21.06 67.71 21.07 68.26 21.6 68.26 22.27 68.27 22.96 67.68 23.51 66.96 23.48ZM 67.32 24.83C 67.54 24.84 67.76 24.87 68.04 24.89 68.04 28.58 68.04 32.22 68.04 35.94 67.37 35.94 66.71 35.94 65.91 35.94 65.91 32.99 65.91 30.08 65.91 27.19 64.88 26.9 64.48 26.14 64.83 25.18 64.88 25.03 65.13 24.86 65.3 24.85 65.97 24.81 66.65 24.83 67.32 24.83ZM 63.87 33C 63.84 34.45 62.88 35.63 61.55 36.03 60.23 36.43 58.79 35.98 58.01 34.78 57.65 34.23 57.39 33.51 57.37 32.86 57.3 30.44 57.36 28.01 57.33 25.58 57.32 25 57.53 24.77 58.11 24.83 58.3 24.85 58.5 24.85 58.69 24.83 59.33 24.76 59.58 24.98 59.56 25.66 59.53 27.86 59.55 30.07 59.55 32.27 59.55 32.49 59.53 32.72 59.57 32.93 59.66 33.52 59.99 33.9 60.62 33.91 61.27 33.93 61.59 33.5 61.67 32.94 61.73 32.5 61.69 32.05 61.69 31.61 61.69 29.41 61.69 27.21 61.69 24.89 62.46 24.89 63.11 24.89 63.89 24.89 63.89 25.28 63.89 25.62 63.89 25.97 63.89 28.32 63.92 30.66 63.87 33ZM 51.13 8.88C 51.14 8.81 51.18 8.73 51.22 8.6 53.22 8.6 55.22 8.6 57.29 8.6 57.29 9.32 57.29 9.94 57.29 10.69 55.77 10.69 54.29 10.69 52.82 10.69 50.97 10.69 50.97 10.69 51.13 8.88ZM 50.63 7.11C 50.37 7.05 50.22 7.02 50.06 6.98 48.93 6.73 48.4 7.14 48.39 8.27 48.39 10.5 48.39 12.73 48.39 14.97 48.39 15.26 48.39 15.56 48.39 15.97 47.63 15.97 46.99 15.97 46.27 15.97 46.25 15.73 46.21 15.49 46.21 15.25 46.21 12.8 46.2 10.35 46.21 7.89 46.22 5.87 47.92 4.46 49.97 4.75 50.37 4.8 50.66 4.94 50.63 5.42 50.61 5.96 50.63 6.5 50.63 7.11ZM 47.91 35.09C 47.91 35.36 47.88 35.63 47.87 35.94 45.73 36.18 45.73 36.18 45.73 34.28 45.73 32.32 45.73 30.37 45.73 28.41 45.73 27.38 45.35 26.82 44.68 26.81 43.98 26.81 43.57 27.42 43.57 28.46 43.56 30.69 43.55 32.92 43.58 35.15 43.58 35.76 43.45 36.04 42.75 36.03 41.4 35.99 41.4 36.04 41.4 34.68 41.4 32.53 41.39 30.38 41.4 28.23 41.41 26.12 42.74 24.72 44.68 24.74 46.54 24.75 47.91 26.23 47.91 28.23 47.91 30.52 47.91 32.81 47.91 35.09ZM 41.46 12.68C 41.24 12.68 41.02 12.7 40.73 12.72 40.69 14.14 41.21 14.27 44.08 13.55 44.16 14.15 44.26 14.74 44.31 15.33 44.32 15.45 44.19 15.63 44.07 15.71 42.24 17 39.21 15.98 38.59 13.87 38.52 13.61 38.48 13.33 38.48 13.06 38.47 11.38 38.46 9.69 38.47 8.01 38.49 6.38 39.71 4.98 41.27 4.76 42.97 4.51 44.46 5.42 44.83 7.16 45.04 8.12 45.04 9.2 44.82 10.16 44.44 11.86 43.24 12.65 41.46 12.68ZM 42.61 7.5C 42.55 7.22 41.89 6.78 41.65 6.86 41.26 6.99 40.79 7.45 40.73 7.83 40.59 8.65 40.68 9.52 40.68 10.43 41.57 10.55 42.42 10.66 42.66 9.72 42.83 9.02 42.76 8.22 42.61 7.5ZM 39.86 22.28C 39.86 22.97 39.36 23.46 38.65 23.45 37.98 23.45 37.49 22.99 37.47 22.33 37.44 21.66 37.95 21.13 38.64 21.12 39.35 21.1 39.85 21.59 39.86 22.28ZM 35.97 3.49C 35.28 3.49 34.75 2.98 34.74 2.3 34.74 1.61 35.25 1.09 35.94 1.08 36.63 1.06 37.19 1.56 37.22 2.22 37.25 2.92 36.69 3.49 35.97 3.49ZM 36.67 4.92C 36.82 4.93 37.05 5.39 37.05 5.65 37.08 8.05 37.07 10.44 37.07 12.84 37.07 13.86 37.07 14.87 37.07 15.95 36.32 15.95 35.67 15.95 34.9 15.95 34.9 12.98 34.9 10.05 34.9 7.1 34.49 7.04 34.2 6.99 33.83 6.93 33.83 6.28 33.83 5.64 33.83 4.89 34.78 4.89 35.73 4.85 36.67 4.92ZM 33.05 14.08C 32.53 15.38 31.37 16.02 29.9 16.01 28.5 16 27.1 16.01 25.73 16.01 25.35 14.46 25.49 14.05 26.52 13.79 26.52 9.96 26.52 6.19 26.52 2.43 25.48 2.04 25.4 1.81 25.68 0.21 27.43 0.21 29.19 0.08 30.92 0.25 32.28 0.38 33.06 1.52 33.09 3 33.11 4.29 33.27 5.6 32.66 6.83 32.59 6.97 32.68 7.24 32.78 7.41 34.06 9.59 33.96 11.86 33.05 14.08ZM 28.81 2.38C 28.81 3.62 28.81 4.87 28.81 6.12 30.46 6.44 30.91 6.08 30.92 4.5 30.92 4.31 30.92 4.11 30.92 3.92 30.92 2.33 30.48 2 28.81 2.38ZM 31.38 9.51C 31.32 8.81 30.83 8.4 30.06 8.4 29.67 8.4 29.28 8.4 28.77 8.4 28.77 10.17 28.76 11.81 28.78 13.45 28.78 13.6 28.94 13.81 29.08 13.87 30.12 14.27 31.23 13.72 31.37 12.62 31.5 11.6 31.46 10.54 31.38 9.51ZM 26.66 20.9C 26.87 20.95 27.12 21.39 27.12 21.65 27.16 23.83 27.15 26.01 27.15 28.18 27.15 29.56 27.14 30.94 27.15 32.32 27.15 33.36 27.5 33.89 28.19 33.91 28.92 33.94 29.28 33.42 29.28 32.29 29.29 28.54 29.31 24.79 29.27 21.05 29.26 20.26 29.47 19.9 30.29 20.03 30.46 20.05 30.63 20.03 30.8 20.03 32.72 20.03 32.81 20.14 32.41 22.11 31.4 21.96 31.43 22.61 31.44 23.33 31.47 26.36 31.42 29.4 31.46 32.43 31.48 33.85 31.14 35.06 29.81 35.79 28.48 36.52 27.26 36.16 26.36 35.46 25.31 35.72 24.44 36.14 23.58 36.12 22.01 36.08 20.68 34.67 20.66 33.1 20.61 28.86 20.65 24.61 20.65 20.37 20.65 20.29 20.7 20.22 20.72 20.16 20.76 20.13 20.78 20.11 20.81 20.1 22.7 19.78 22.82 19.87 22.82 21.7 22.82 25.2 22.82 28.7 22.82 32.2 22.82 32.48 22.73 32.82 22.86 33.01 23.11 33.36 23.45 33.77 23.82 33.87 24.36 34.02 24.79 33.65 24.92 33.09 24.99 32.83 24.98 32.55 24.98 32.27 24.98 28.83 24.98 25.38 24.98 21.94 24.98 21.62 24.98 21.29 24.98 20.87 25.62 20.87 26.16 20.79 26.66 20.9ZM 20.74 16.12C 18.99 16.5 17.14 15.24 16.92 13.5 16.81 12.54 16.84 11.57 16.84 10.61 16.83 7.77 16.87 4.93 16.81 2.1 16.8 1.24 17.06 1.01 17.9 1.04 18.66 1.07 19.14 1.12 19.02 2.06 18.93 2.71 19.04 3.38 18.99 4.04 18.94 4.69 19.18 4.96 19.84 4.88 20.11 4.85 20.39 4.87 20.75 4.87 20.77 5.26 20.8 5.55 20.79 5.84 20.79 6.95 20.95 7.05 19.69 7 19.12 6.98 18.99 7.24 18.99 7.75 19.02 9.29 19 10.83 19 12.38 19.01 13.84 19.54 14.23 21.02 13.88 21.1 13.86 21.18 13.88 21.35 13.88 21.35 14.45 21.4 15.03 21.32 15.59 21.29 15.8 20.97 16.07 20.74 16.12ZM 12.43 12.68C 12.18 12.68 11.93 12.71 11.7 12.73 11.56 14.06 11.9 14.14 15.02 13.59 15.1 14.13 15.22 14.67 15.22 15.21 15.23 15.4 15.01 15.71 14.82 15.79 11.73 17.01 9.17 15.34 9.37 12.43 9.47 11.01 9.37 9.57 9.39 8.14 9.41 6.4 10.65 4.94 12.24 4.75 14.02 4.54 15.39 5.52 15.86 7.36 16.13 8.43 16.08 9.49 15.66 10.52 15.06 11.99 14.07 12.65 12.43 12.68ZM 13.56 7.51C 13.38 7.2 12.86 6.81 12.58 6.87 12.22 6.94 11.84 7.38 11.66 7.75 11.5 8.06 11.63 8.5 11.63 8.88 11.62 8.88 11.61 8.88 11.6 8.88 11.6 9.27 11.58 9.65 11.62 10.03 11.63 10.19 11.76 10.4 11.89 10.46 12.49 10.73 13.3 10.41 13.59 9.8 13.94 9.04 13.99 8.24 13.56 7.51ZM 11.96 24.74C 13.59 24.78 15.05 26.12 15.08 27.73 15.13 30.35 15.1 32.97 15.09 35.58 15.09 35.69 15.05 35.79 15.02 35.94 12.92 36.19 12.92 36.19 12.92 34.28 12.92 32.27 12.92 30.26 12.92 28.25 12.92 27.36 12.52 26.83 11.88 26.81 11.22 26.8 10.76 27.38 10.76 28.29 10.75 30.6 10.74 32.92 10.77 35.23 10.78 35.86 10.56 36.09 9.95 36.01 9.7 35.99 9.44 36 9.19 36.01 8.76 36.04 8.59 35.84 8.59 35.43 8.6 32.84 8.54 30.25 8.63 27.66 8.7 25.9 10.18 24.69 11.96 24.74ZM 7.54 9.65C 7.59 11.73 7.56 13.82 7.56 15.96 6.78 15.96 6.12 15.96 5.35 15.96 5.35 15.34 5.35 14.77 5.35 14.2 5.35 12.63 5.31 11.06 5.37 9.49 5.39 8.73 5.12 8.49 4.41 8.59 4.24 8.61 4.07 8.61 3.9 8.59 3.35 8.53 3.17 8.77 3.18 9.31 3.2 11.18 3.18 13.06 3.18 14.93 3.18 15.26 3.18 15.58 3.18 15.96 2.45 15.96 1.82 15.96 1.08 15.96 1.06 15.64 1.02 15.32 1.02 15.01 1.02 13.22 1.02 11.42 1.02 9.63 1.02 8.69 1.01 8.69 0.02 8.48 0.02 7.95-0.02 7.45 0.04 6.97 0.06 6.79 0.29 6.5 0.44 6.49 1.03 6.46 1.02 6.09 1.02 5.69 1.02 4.17 1.02 2.65 1.02 1.14 1.02 0.81 1.05 0.49 1.07 0.18 3.13-0.18 3.18-0.14 3.18 1.78 3.18 3.1 3.21 4.43 3.18 5.75 3.16 6.3 3.38 6.51 3.91 6.46 4.14 6.45 4.36 6.44 4.59 6.46 5.17 6.52 5.37 6.29 5.36 5.71 5.33 4.16 5.39 2.62 5.33 1.07 5.3 0.28 5.55-0.04 6.36 0.07 6.71 0.11 7.07 0.08 7.52 0.08 7.52 2.24 7.52 4.29 7.52 6.36 7.88 6.43 8.15 6.48 8.49 6.55 8.49 7.19 8.49 7.83 8.49 8.53 7.64 8.46 7.53 8.93 7.54 9.65ZM 4.39 24.74C 5.63 24.8 6.5 25.44 7 26.52 7.74 28.1 7.66 29.68 6.78 31.19 6.2 32.17 5.28 32.64 4.14 32.7 3.83 32.71 3.53 32.7 3.18 32.7 3.12 33.72 3.5 34.13 4.39 34.03 5.08 33.95 5.74 33.74 6.44 33.58 6.47 33.7 6.51 33.8 6.53 33.91 6.84 35.79 6.61 36.06 4.62 36.18 2.36 36.32 0.87 34.97 0.85 32.74 0.84 31.17 0.82 29.6 0.86 28.03 0.91 26.05 2.43 24.65 4.39 24.74ZM 3.09 28.94C 3.09 29.3 3.06 29.66 3.11 30.02 3.13 30.19 3.3 30.47 3.43 30.49 4.06 30.59 4.68 30.53 5.01 29.87 5.42 29.04 5.44 28.19 4.97 27.41 4.8 27.12 4.27 26.8 4 26.86 3.65 26.94 3.29 27.36 3.14 27.72 3 28.07 3.11 28.53 3.11 28.94 3.11 28.94 3.1 28.94 3.09 28.94ZM 34.45 23.48C 33.76 23.46 33.24 22.92 33.26 22.25 33.27 21.58 33.83 21.05 34.5 21.06 35.17 21.07 35.75 21.62 35.76 22.26 35.77 22.94 35.16 23.5 34.45 23.48ZM 33.6 24.83C 35.6 24.83 35.6 24.83 35.6 26.76 35.6 28 35.6 29.24 35.6 30.48 35.6 32.05 35.57 33.62 35.62 35.19 35.64 35.87 35.39 36.09 34.75 36.01 34.61 36 34.46 35.99 34.33 36.01 33.59 36.12 33.36 35.84 33.38 35.1 33.42 32.68 33.39 30.26 33.4 27.83 33.4 27.38 33.39 27.02 32.77 27 32.59 26.99 32.43 26.63 32.28 26.43 32.24 26.37 32.27 26.27 32.27 26.18 32.25 24.83 32.25 24.83 33.6 24.83ZM 37.58 36.72C 37.6 33.6 37.59 30.49 37.58 27.38 37.58 27.3 37.53 27.22 37.49 27.12 37.17 27.06 36.85 27 36.49 26.93 36.49 26.26 36.49 25.6 36.49 24.85 37.48 24.85 38.42 24.81 39.36 24.88 39.51 24.89 39.74 25.36 39.75 25.62 39.78 27.41 39.76 29.2 39.76 30.99 39.76 32.64 39.7 34.3 39.78 35.95 39.88 37.88 39.17 39.27 37.3 40 36.74 40 36.18 40 35.62 40 35.45 39.24 35.29 38.47 35.1 37.59 35.62 37.7 35.89 37.79 36.16 37.82 37.02 37.93 37.58 37.53 37.58 36.72ZM 51.77 24.77C 52.2 24.8 52.52 24.82 52.85 24.83 54.96 24.92 56.1 26.05 56.12 28.13 56.15 30 56.13 31.87 56.13 33.75 56.13 34.46 56.13 35.17 56.13 35.94 56.15 35.93 56.08 35.98 56.01 35.99 53.95 36.15 53.95 36.15 53.95 34.12 53.95 32.33 53.95 30.53 53.95 28.74 53.95 27.18 53.46 26.8 51.8 27.16 51.8 30.05 51.8 32.96 51.8 36.01 51.27 36.01 50.84 35.98 50.4 36.02 49.78 36.08 49.58 35.84 49.59 35.22 49.62 32.91 49.6 30.59 49.6 28.28 49.6 26.11 49.6 23.93 49.6 21.72 49.21 21.66 48.89 21.62 48.53 21.57 48.53 20.87 48.53 20.2 48.53 19.49 49.68 19.49 50.67 19.49 51.77 19.49 51.77 21.26 51.77 22.98 51.77 24.77Z" fill="rgb(0,27,95)"/></svg>