<?xml version="1.0" encoding="utf-8"?>
<svg xmlns="http://www.w3.org/2000/svg"
	xmlns:xlink="http://www.w3.org/1999/xlink"
	width="44px" height="44px" viewBox="0 0 44 44">
<path fillRule="evenodd" d="M 22 44C 9.85 44-0 34.15-0 22-0 9.85 9.85-0 22-0 34.15-0 44 9.85 44 22 44 34.15 34.15 44 22 44ZM 12.04 24.73C 12.04 24.73 13.72 24.73 13.72 24.73 13.72 24.73 13.72 33.07 13.72 33.07 13.72 33.07 15.34 33.07 15.34 33.07 15.34 33.07 15.34 24.73 15.34 24.73 15.34 24.73 17.01 24.73 17.01 24.73 17.01 24.73 17.01 23.31 17.01 23.31 17.01 23.31 12.04 23.31 12.04 23.31 12.04 23.31 12.04 24.73 12.04 24.73ZM 17.28 10.74C 17.28 10.74 16.15 15.03 16.15 15.03 16.15 15.03 16.03 15.03 16.03 15.03 16.03 15.03 14.85 10.74 14.85 10.74 14.85 10.74 13.01 10.74 13.01 10.74 13.01 10.74 15.18 17.23 15.18 17.23 15.18 17.23 15.18 21.48 15.18 21.48 15.18 21.48 17.01 21.48 17.01 21.48 17.01 21.48 17.01 17.03 17.01 17.03 17.01 17.03 19.13 10.74 19.13 10.74 19.13 10.74 17.28 10.74 17.28 10.74ZM 19.08 31.39C 19.08 31.39 19.08 25.87 19.08 25.87 19.08 25.87 17.65 25.87 17.65 25.87 17.65 25.87 17.65 31.89 17.65 31.89 17.65 32.32 17.73 32.63 17.9 32.85 18.07 33.06 18.32 33.17 18.65 33.17 18.92 33.17 19.2 33.1 19.49 32.94 19.77 32.79 20.05 32.57 20.32 32.28 20.32 32.28 20.32 33.07 20.32 33.07 20.32 33.07 21.75 33.07 21.75 33.07 21.75 33.07 21.75 25.87 21.75 25.87 21.75 25.87 20.32 25.87 20.32 25.87 20.32 25.87 20.32 31.33 20.32 31.33 20.18 31.49 20.03 31.62 19.87 31.72 19.71 31.82 19.57 31.87 19.47 31.87 19.33 31.87 19.24 31.83 19.17 31.76 19.12 31.68 19.08 31.56 19.08 31.39ZM 23.96 15.41C 23.96 14.81 23.75 14.32 23.32 13.93 22.89 13.55 22.34 13.36 21.67 13.36 20.94 13.36 20.35 13.54 19.91 13.9 19.48 14.27 19.26 14.75 19.26 15.37 19.26 15.37 19.26 19.48 19.26 19.48 19.26 20.15 19.47 20.69 19.9 21.09 20.32 21.48 20.89 21.69 21.6 21.69 22.34 21.69 22.91 21.49 23.33 21.11 23.75 20.72 23.96 20.19 23.96 19.51 23.96 19.51 23.96 15.41 23.96 15.41ZM 24.29 26.45C 24.29 26.45 24.29 23.31 24.29 23.31 24.29 23.31 22.84 23.31 22.84 23.31 22.84 23.31 22.84 33.07 22.84 33.07 22.84 33.07 24.29 33.07 24.29 33.07 24.29 33.07 24.29 32.51 24.29 32.51 24.48 32.73 24.68 32.9 24.91 33 25.12 33.11 25.38 33.16 25.66 33.16 26.08 33.16 26.41 33.02 26.64 32.75 26.86 32.48 26.97 32.09 26.97 31.58 26.97 31.58 26.97 27.58 26.97 27.58 26.97 26.99 26.86 26.55 26.61 26.24 26.37 25.93 26.03 25.78 25.57 25.78 25.35 25.78 25.13 25.84 24.91 25.95 24.69 26.06 24.49 26.23 24.29 26.45ZM 29.9 13.56C 29.9 13.56 28.28 13.56 28.28 13.56 28.28 13.56 28.28 19.57 28.28 19.57 28.13 19.75 27.96 19.89 27.78 20 27.6 20.11 27.45 20.17 27.33 20.17 27.17 20.17 27.06 20.13 27 20.04 26.93 19.96 26.89 19.82 26.89 19.63 26.89 19.63 26.89 13.56 26.89 13.56 26.89 13.56 25.28 13.56 25.28 13.56 25.28 13.56 25.28 20.18 25.28 20.18 25.28 20.65 25.37 21.01 25.56 21.24 25.75 21.48 26.03 21.6 26.41 21.6 26.71 21.6 27.02 21.52 27.35 21.35 27.67 21.18 27.98 20.93 28.28 20.61 28.28 20.61 28.28 21.48 28.28 21.48 28.28 21.48 29.9 21.48 29.9 21.48 29.9 21.48 29.9 13.56 29.9 13.56ZM 31.96 30.67C 31.96 30.67 30.48 30.67 30.48 30.67 30.48 30.67 30.48 31 30.48 31 30.48 31.42 30.43 31.69 30.34 31.82 30.24 31.94 30.08 32 29.84 32 29.61 32 29.45 31.93 29.35 31.78 29.26 31.64 29.21 31.37 29.21 31 29.21 31 29.21 29.64 29.21 29.64 29.21 29.64 31.96 29.64 31.96 29.64 31.96 29.64 31.96 27.8 31.96 27.8 31.96 27.12 31.79 26.6 31.43 26.23 31.08 25.87 30.57 25.69 29.91 25.69 29.27 25.69 28.75 25.88 28.34 26.28 27.93 26.67 27.73 27.18 27.73 27.8 27.73 27.8 27.73 31.04 27.73 31.04 27.73 31.73 27.91 32.28 28.29 32.67 28.65 33.06 29.16 33.26 29.81 33.26 30.52 33.26 31.06 33.08 31.42 32.71 31.78 32.33 31.96 31.77 31.96 31.04 31.96 31.04 31.96 30.67 31.96 30.67ZM 29.21 27.79C 29.21 27.49 29.26 27.27 29.36 27.15 29.46 27.01 29.62 26.95 29.85 26.95 30.07 26.95 30.23 27.01 30.33 27.15 30.43 27.27 30.48 27.49 30.48 27.79 30.48 27.79 30.48 28.52 30.48 28.52 30.48 28.52 29.21 28.52 29.21 28.52 29.21 28.52 29.21 27.79 29.21 27.79ZM 24.98 32.03C 24.86 32.03 24.74 32 24.63 31.95 24.52 31.9 24.41 31.81 24.29 31.7 24.29 31.7 24.29 27.21 24.29 27.21 24.39 27.11 24.49 27.04 24.59 26.99 24.69 26.94 24.79 26.92 24.89 26.92 25.09 26.92 25.24 26.98 25.34 27.11 25.44 27.24 25.49 27.42 25.49 27.66 25.49 27.66 25.49 31.38 25.49 31.38 25.49 31.61 25.45 31.78 25.37 31.88 25.28 31.98 25.16 32.03 24.98 32.03ZM 21.59 20.31C 21.38 20.31 21.22 20.25 21.1 20.13 20.99 20.01 20.93 19.85 20.93 19.63 20.93 19.63 20.93 15.31 20.93 15.31 20.93 15.14 20.99 15 21.11 14.89 21.24 14.78 21.4 14.73 21.59 14.73 21.81 14.73 21.98 14.78 22.11 14.89 22.24 15 22.31 15.14 22.31 15.31 22.31 15.31 22.31 19.63 22.31 19.63 22.31 19.84 22.25 20.01 22.12 20.13 21.99 20.25 21.81 20.31 21.59 20.31Z" fill="rgb(255,255,255)"/></svg>